# xmcd
#
# Track frame offsets: 
#        150
#        1649
#        19421
#        30381
#        44226
#        61901
#        77021
#        88909
#        106735
#        125720
#        140533
#        160947
#
# Disc length: 2355 seconds
#
# Revision: 0
# Processed by: cddbd v1.5.2PL0 Copyright (c) Steve Scherf et al.
# Submitted via: ExactAudioCopy v0.99pb3
#
DISCID=9709310c
DTITLE=Blod Red Eagle - Divine Providence
DYEAR=2008
DGENRE=Acid Punk
TTITLE0=Intro
TTITLE1=Seans Of Blood
TTITLE2=Blow By Blow
TTITLE3=The Pride Of Portland
TTITLE4=The Ends Justify The Means
TTITLE5=3rd Coming Of Odin (odin ht.2)
TTITLE6=I Feel Nothing
TTITLE7=Losing Blood
TTITLE8=A Love For My Nation
TTITLE9=Watch It Burn
TTITLE10=White Guilt
TTITLE11=Jarl's Kin
EXTD=
EXTT0=
EXTT1=
EXTT2=
EXTT3=
EXTT4=
EXTT5=
EXTT6=
EXTT7=
EXTT8=
EXTT9=
EXTT10=
EXTT11=
PLAYORDER=
